<svg xmlns="http://www.w3.org/2000/svg" width="22" height="22" viewBox="0 0 22 22"><g><g><path d="M7.583 10.434l4.772-4.773a.737.737 0 0 1 1.04 1.041l-4.254 4.255 4.254 4.254a.736.736 0 0 1-1.04 1.04L7.583 11.48a.73.73 0 0 1-.216-.523c0-.19.07-.378.216-.523zM10.987.026c6.066 0 10.985 4.917 10.985 10.985 0 6.065-4.919 10.984-10.985 10.984S.003 17.076.003 11.01C.003 4.944 4.921.027 10.987.027zm0 20.497c5.245 0 9.514-4.27 9.514-9.513 0-5.245-4.269-9.513-9.514-9.513-5.244 0-9.512 4.268-9.512 9.513 0 5.243 4.268 9.513 9.512 9.513z"/><path fill="#d1d1d1" d="M7.583 10.434l4.772-4.773a.737.737 0 0 1 1.04 1.041l-4.254 4.255 4.254 4.254a.736.736 0 0 1-1.04 1.04L7.583 11.48a.73.73 0 0 1-.216-.523c0-.19.07-.378.216-.523zM10.987.026c6.066 0 10.985 4.917 10.985 10.985 0 6.065-4.919 10.984-10.985 10.984S.003 17.076.003 11.01C.003 4.944 4.921.027 10.987.027zm0 20.497c5.245 0 9.514-4.27 9.514-9.513 0-5.245-4.269-9.513-9.514-9.513-5.244 0-9.512 4.268-9.512 9.513 0 5.243 4.268 9.513 9.512 9.513z"/></g></g></svg>