<svg xmlns="http://www.w3.org/2000/svg" width="22" height="22" viewBox="0 0 22 22"><g><g><path d="M14.633 10.957a.73.73 0 0 1-.216.523L9.645 16.25a.736.736 0 0 1-1.04-1.04l4.254-4.254-4.255-4.255a.737.737 0 0 1 1.04-1.041l4.773 4.773a.732.732 0 0 1 .216.523zm7.364.053c0 6.066-4.918 10.985-10.985 10.985C4.946 21.995.028 17.076.028 11.01.028 4.944 4.946.027 11.012.027c6.067 0 10.985 4.917 10.985 10.985zm-1.472 0c0-5.245-4.268-9.513-9.513-9.513-5.244 0-9.513 4.268-9.513 9.514 0 5.242 4.269 9.512 9.513 9.512 5.245 0 9.513-4.27 9.513-9.512z"/><path fill="#c7b299" d="M14.633 10.957a.73.73 0 0 1-.216.523L9.645 16.25a.736.736 0 0 1-1.04-1.04l4.254-4.254-4.255-4.255a.737.737 0 0 1 1.04-1.041l4.773 4.773a.732.732 0 0 1 .216.523zm7.364.053c0 6.066-4.918 10.985-10.985 10.985C4.946 21.995.028 17.076.028 11.01.028 4.944 4.946.027 11.012.027c6.067 0 10.985 4.917 10.985 10.985zm-1.472 0c0-5.245-4.268-9.513-9.513-9.513-5.244 0-9.513 4.268-9.513 9.514 0 5.242 4.269 9.512 9.513 9.512 5.245 0 9.513-4.27 9.513-9.512z"/></g></g></svg>